<svg width="1920" height="1080" viewBox="0 0 1920 1080" fill="none" xmlns="http://www.w3.org/2000/svg">
<g clip-path="url(#clip0_5_1691)">
<path d="M7.37645 915.969C11.3774 912.846 28.6384 905.615 32.6647 911.412C35.9043 916.074 31.9191 917.919 38.4252 923.552C38.9571 925.98 38.8002 926.869 38.6635 929.334C36.715 932.337 27.7239 941.474 27.3847 942.281C28.4031 961.675 29.5738 978.798 33.8654 997.952C35.5001 1005.25 38.7703 1010.61 40.2885 1016.29C47.4819 1002.82 34.9771 992.798 54.5521 976.564L54.886 976.317C65.517 968.301 77.64 969.474 88.4735 962.907L89.2662 962.414C90.9958 962.168 92.5775 963.438 94.1764 964.379C97.5295 967.584 98.518 967.577 103.249 967.95C105.204 969.571 105.225 969.848 106.372 972.193C106.592 974.98 106.174 977.236 107.771 978.723L108.072 978.783C114.761 985.08 108.426 988.218 108.865 992.962C110.342 1008.91 115.013 1016.43 107.723 1032.52C117.271 1026.13 150.598 965.246 160.943 951.649C158.077 945.717 152.676 933.652 161.09 929.984C162.71 930.432 162.882 930.559 164.615 930.559C166.506 926.943 167.089 925.92 169.645 922.775C176.902 923.268 186.18 928.258 189.616 934.945C190.847 942.826 183.428 953.562 177.146 958.119C174.684 971.902 167.561 985.648 161.704 998.528C159.413 1006.73 149.768 1022.64 145.963 1031.26C140.47 1043.73 130.605 1057.65 126.692 1070.87C131.502 1078.99 131.277 1083.81 134.721 1091H129.573H22.0853C20.6695 1083.41 16.936 1074.8 15.4186 1066.2C18.6164 1071.44 20.4917 1079.35 22.163 1085.36C23.5542 1080.56 25.0933 1075.8 26.7773 1071.1C6.60392 1027.37 2.87347 987.957 8.65406 941.735C9.68286 933.51 5.01849 928.109 7.37645 915.969ZM52.7231 1039.37C52.9711 1039.65 53.2237 1039.93 53.4814 1040.21C55.2387 1042.07 56.2742 1042.99 58.6083 1043.08L59.268 1041.89C57.2432 1037.17 48.5152 1026.63 43.5259 1024.81C46.554 1029.76 49.0733 1035.01 52.7231 1039.37ZM93.2245 1046.05C96.8332 1045.27 100.839 1042.4 103.307 1039.71L103.602 1038.14C100.567 1039.64 94.2324 1041.69 92.6515 1042.93L92.2772 1044.6L93.2245 1046.05Z" fill="#0C0B2B"/>
<path d="M23.605 944.387C24.9588 942.311 24.252 942.976 27.3847 942.281C28.4031 961.675 29.5738 978.797 33.8654 997.952C35.5001 1005.25 38.7703 1010.61 40.2885 1016.29C40.4095 1018.91 41.5743 1022.96 43.5259 1024.81C46.554 1029.76 49.0733 1035.01 52.7231 1039.37C52.5184 1041.79 55.6018 1042.98 56.0882 1047.36C49.8451 1046.03 41.7103 1028.58 39.0737 1023.09C26.5218 996.974 25.4646 973.307 23.605 944.387Z" fill="#351D58"/>
<path d="M108.072 978.783C114.761 985.08 108.427 988.218 108.865 992.962C110.342 1008.91 115.013 1016.43 107.724 1032.52C105.409 1033.63 105.08 1037.47 100.987 1037.33L100.29 1036.44C108.771 1027.16 106.338 1016.62 105.588 1005.08C105.33 1001.11 105.1 997.22 103.587 993.507C106.345 988.973 109.47 986.186 105.113 982.227L105.103 980.217L108.072 978.783Z" fill="#351D58"/>
<path d="M94.1764 964.379C97.5295 967.584 98.518 967.577 103.249 967.95C105.204 969.571 105.225 969.848 106.372 972.193L105.705 976.474L104.668 977.109L100.636 976.108C94.798 975.129 90.7276 975.458 85.2392 973.232L81.6492 971.454C86.0289 969.863 87.7107 966.971 91.8408 966.277C93.0871 965.559 93.1521 965.365 94.1764 964.379Z" fill="#351D58"/>
<path d="M81.6492 971.454C86.0289 969.862 87.7107 966.971 91.8408 966.277C93.3082 968.824 93.8013 968.734 93.69 971.394C90.4131 973.292 88.1224 971.409 85.2392 973.232L81.6492 971.454Z" fill="#492A6D"/>
<path d="M7.37646 915.969C11.3774 912.846 28.6384 905.615 32.6648 911.412C35.9043 916.074 31.9191 917.919 38.4252 923.552C38.9571 925.98 38.8002 926.869 38.6635 929.334L35.8266 930.387C35.4628 929.17 35.6473 927.706 35.7026 926.406C33.264 923.716 34.487 924.568 30.6228 923.44C28.6736 920.07 32.3569 917.725 29.5821 913.967C24.2191 911.397 16.2442 916.006 10.7341 917.254C8.97011 917.657 9.09786 917.239 7.37646 915.969Z" fill="#351D58"/>
<path d="M189.616 934.944C190.848 942.826 183.428 953.561 177.146 958.119C174.684 971.902 167.561 985.648 161.704 998.528C159.991 992.424 172.243 975.309 173.05 969.728C175.107 955.504 181.951 949.453 186.334 936.334L188.528 936.67L189.616 934.944Z" fill="#351D58"/>
<path d="M54.552 976.564L54.886 976.317C65.517 968.301 77.64 969.474 88.4734 962.907L89.2661 962.414C90.9958 962.168 92.5774 963.438 94.1763 964.379C93.152 965.365 93.087 965.56 91.8408 966.277C87.7106 966.971 86.0288 969.863 81.6491 971.454C75.4367 972.007 70.1522 972.672 64.2154 974.733C60.8317 975.906 57.3104 978.663 54.552 976.564Z" fill="#351D58"/>
<path d="M129.573 1091C128.359 1085.71 123.496 1075.88 124.797 1071.7L126.693 1070.87C131.502 1078.99 131.277 1083.81 134.721 1091H129.573Z" fill="#351D58"/>
<path d="M169.645 922.775C176.902 923.268 186.18 928.258 189.616 934.944L188.528 936.67L186.334 936.334C182.246 932.008 170.69 925.703 169.645 922.775Z" fill="#492A6D"/>
<path d="M35.7025 926.406C35.6472 927.705 35.4627 929.17 35.8265 930.387L38.6634 929.334C36.7149 932.337 27.7239 941.474 27.3847 942.281C24.2519 942.976 24.9587 942.311 23.6049 944.387C21.7647 941.571 33.2848 931.979 35.7025 926.406Z" fill="#191139"/>
<path d="M106.372 972.193C106.592 974.98 106.174 977.236 107.771 978.723L108.072 978.783L105.103 980.217L105.113 982.227C102.665 982.623 101.468 982.951 99.6447 981.823C99.2166 979.5 99.8584 978.364 100.636 976.108L104.668 977.109L105.705 976.474L106.372 972.193Z" fill="#492A6D"/>
<path d="M103.602 1038.14L103.307 1039.71C100.839 1042.4 96.8331 1045.27 93.2245 1046.05L92.2771 1044.6L92.6514 1042.93C94.2324 1041.69 100.567 1039.64 103.602 1038.14Z" fill="#0C0B2B" fill-opacity="0.0156863"/>
<path d="M97.6789 1009.23C98.1989 1009.58 99.1725 1010.56 99.6813 1011.03C100.422 1013.52 100.097 1013.86 99.1777 1016.46C96.89 1014.88 97.4847 1011.6 97.6789 1009.23Z" fill="#191139"/>
<path d="M604.219 977.393L608.43 977.789L611.104 977.938C633.576 985.29 620.747 1007.25 630.447 1016.58C641.536 1031.97 656.806 1055.17 656.002 1074.39C655.491 1083.93 645.798 1087.41 638.363 1091H493.382C501.57 1079.73 508.219 1067.46 522.919 1061.5C526.585 1061.48 537.663 1060.15 540.605 1058.77C536.237 1058.58 526.884 1058.88 523.006 1060.93L520.458 1059.5C516.053 1053.74 520.265 1048.2 524.41 1044.04L522.241 1034.17C504.096 1037.2 496.24 1021.37 503.627 1005.94C505.736 1001.6 507.32 998.827 511.708 996.526C514.326 994.598 517.398 993.388 520.625 993.007C526.302 992.327 529.625 994.269 533.825 997.586C543.42 987.613 558.64 983.997 571.661 988.763C580.621 991.655 585.268 994.837 589.727 1003.59C590.224 1004.53 590.686 1005.51 591.112 1006.5C593.857 1012.26 593.903 1021.16 597.316 1029.9C595.228 1036.92 592.813 1050.64 588.116 1055C584.565 1057.25 581.964 1058.5 578.159 1060.33C590.893 1059.17 608.195 1059.39 621.044 1060.65L623.037 1060.39L623.528 1059.56C621.026 1047.54 615.561 1030.7 611.996 1018.48C605.017 1014.81 592.884 1007.63 595.291 998.102C598.17 996.824 597.695 999.29 601.721 999.574C601.7 994.307 596.873 987.493 598.469 982.092L602.302 978.91L604.219 977.393Z" fill="#0C0B2B"/>
<path d="M625.462 1015.16C627.437 1015.6 628.539 1015.91 630.447 1016.58C641.536 1031.97 656.806 1055.17 656.002 1074.39C650.903 1071.93 652.633 1066.7 650.626 1060.84C645.378 1045.52 634.207 1028.54 625.462 1015.16Z" fill="#351D58"/>
<path d="M621.044 1060.65C622.459 1062.31 622.118 1061.39 622.35 1063.36C618.555 1066 608.288 1063.77 603.578 1064.51C603.563 1064.52 601.017 1066.53 598.812 1067.17C598.395 1066.44 596.677 1063.75 596.191 1063.67C589.761 1062.75 578.971 1065.95 572.869 1063.69C572.235 1061.47 572.548 1058.8 573.929 1056.96L575.101 1057.05C575.595 1058.59 575.772 1059.56 576.812 1060.83L578.159 1060.33C590.893 1059.17 608.195 1059.39 621.044 1060.65Z" fill="#351D58"/>
<path d="M571.661 988.763C580.621 991.655 585.269 994.837 589.727 1003.59C590.224 1004.53 590.686 1005.51 591.113 1006.5C590.728 1009.43 591.118 1010.94 589 1012.73C584.048 998.901 576.944 993.971 562.854 992.402C558.736 991.752 555.062 992.14 550.93 992.402C546.481 990.87 543.248 993.44 538.57 995.666L538.572 995.323C546.799 987.755 561.333 988.689 571.661 988.763Z" fill="#492A6D"/>
<path d="M533.825 997.586C543.42 987.613 558.64 983.997 571.661 988.763C561.333 988.689 546.799 987.755 538.572 995.323L538.57 995.666C543.248 993.44 546.481 990.87 550.93 992.402L550.041 992.656C545.969 993.829 539.496 996.242 536.393 999.14C535.753 1003.39 538.177 1001.33 537.631 1007.07C534.574 1005.06 536.552 1003.62 533.18 1003.04L530.189 1004.63L529.084 1003.82C529.735 1002.17 530.06 1002.04 531.416 1000.93C526.107 996.981 520.811 996.593 514.517 998.087L511.708 996.526C514.326 994.598 517.398 993.388 520.626 993.007C526.302 992.327 529.625 994.269 533.825 997.586Z" fill="#351D58"/>
<path d="M562.854 992.402C576.944 993.971 584.047 998.901 589 1012.73C589.23 1014.99 589.667 1017.69 589.323 1019.88C587.799 1019.36 587.356 1019.63 585.642 1019.83C583.154 1018.03 583.15 1011.18 580.906 1008.72C575.91 1003.25 568.485 997.34 562.854 992.402Z" fill="#191139"/>
<path d="M591.113 1006.5C593.857 1012.26 593.903 1021.16 597.316 1029.9C595.228 1036.92 592.813 1050.64 588.116 1055C585.549 1052.97 586.864 1052.12 588.196 1049.07C592.34 1039.55 590.728 1029.78 589.323 1019.88C589.668 1017.69 589.23 1014.99 589 1012.73C591.118 1010.94 590.728 1009.43 591.113 1006.5Z" fill="#351D53"/>
<path d="M611.104 977.938C633.576 985.29 620.747 1007.25 630.447 1016.58C628.539 1015.91 627.437 1015.6 625.462 1015.16C622.506 1012.46 624.639 1005.35 623.575 1002.23C620.336 992.745 614.494 988.726 611.104 977.938Z" fill="#351D58"/>
<path d="M503.627 1005.94C505.736 1001.6 507.321 998.826 511.708 996.526L514.517 998.087C509.449 1000.75 506.132 1006.86 504.225 1006.77L503.627 1005.94Z" fill="#492A6D"/>
<path d="M604.219 977.393L608.43 977.789C609.988 983.9 611.258 988.704 612.15 994.957C610.104 989.764 607.286 981.726 604.219 977.393Z" fill="#351D58"/>
<path d="M598.469 982.092L602.302 978.91C602.99 983.915 604.051 987.68 605.341 992.529C603.395 989.032 601.39 984.64 598.469 982.092Z" fill="#191139"/>
<path d="M577.253 1027.02C580.082 1027.77 579.74 1027.92 581.034 1030.07C581.343 1032.8 581.12 1033.33 580.383 1036.01C577.997 1034.98 577.715 1034.83 576.336 1032.64C575.835 1030.05 576.212 1029.49 577.253 1027.02Z" fill="#191139"/>
<path d="M192.646 979.35C212.514 972.619 235.398 976.422 242.741 998.924C245.562 1007.57 246.213 1018.58 247.364 1027.73C248.384 1035.14 257.304 1036.76 257.798 1047.54C257.802 1052 254.32 1056.43 251.835 1059.99C270.098 1066.6 272.012 1074.12 280.087 1091H274.702H141.872C143.991 1084.1 147.351 1074.06 152.081 1068.42C153.888 1066.27 156.569 1065.01 159.076 1061.81L155.062 1057.5C152.552 1049.57 154.575 1039.86 159.406 1033.15C171.767 1015.99 165.288 993.926 186.522 982.481C188.584 981.255 190.492 980.374 192.646 979.35Z" fill="#0C0B2B"/>
<path d="M192.646 979.35C212.514 972.619 235.398 976.422 242.74 998.924C245.562 1007.57 246.213 1018.58 247.364 1027.73C248.384 1035.14 257.304 1036.76 257.798 1047.54L256.583 1047.17C250.802 1037.03 244.94 1034.47 242.244 1020.75C238.065 994.112 224.27 978.006 195.858 981.315C194.147 981.509 193.648 980.441 192.646 979.35Z" fill="#492A6D"/>
<path d="M186.522 982.481C188.584 981.255 190.492 980.374 192.646 979.35C193.648 980.441 194.147 981.509 195.858 981.315C224.27 978.006 238.065 994.112 242.244 1020.75C240.478 1022.73 239.187 1023.79 238.509 1026.33C238.225 1024.57 231.209 1004.94 228.747 1003.04C227.828 1003.53 226.905 1004.03 225.978 1004.5C222.344 1001 219.618 992.454 215.571 988.636C212.047 985.312 202.412 983.295 197.536 982.779C195.176 982.525 189.278 984.767 186.557 983.728L186.522 982.481Z" fill="#191139"/>
<path d="M242.244 1020.75C244.94 1034.47 250.802 1037.03 256.583 1047.17L257.798 1047.54C257.802 1052 254.32 1056.43 251.835 1059.99C250.556 1059.99 249.963 1059.44 248.716 1058.77L250.278 1058.44C255.551 1051.26 244.537 1040 241.342 1033.58C240.097 1031.08 239.362 1028.99 238.51 1026.33C239.187 1023.79 240.478 1022.73 242.244 1020.75Z" fill="#351D58"/>
<path d="M274.702 1091C270.991 1079.82 262.774 1069.71 252.848 1063.14C250.271 1061.44 246.344 1061.06 245.219 1059.25L246.831 1058.2L248.716 1058.77C249.963 1059.44 250.556 1059.99 251.835 1059.99C270.098 1066.6 272.012 1074.12 280.087 1091H274.702Z" fill="#351D58"/>
<path d="M-65.6573 965.873C-57.8579 960.158 -49.2021 962.549 -39.8102 963.176C-36.2518 963.415 -31.8446 966.471 -29.0369 966.807C-25.011 968.802 -24.5871 969.198 -21.5677 972.515C-19.3232 975.182 -17.3451 977.535 -14.9123 980.023C-13.5074 983.952 -12.8376 989.369 -14.1404 993.365C-16.9338 996.384 -19.2724 998.191 -19.6757 1002.26C-19.3126 1006.65 -17.9776 1010.05 -17.6346 1013.69C-16.7478 1023.1 -19.8737 1033.24 -27.6153 1039.27C-31.1874 1042.16 -34.838 1041.5 -36.44 1043.9C-36.3687 1044.57 -36.3655 1045.45 -36.1 1045.98C-32.7236 1046.35 -21.2496 1048 -18.2897 1049.09C-14.9925 1049.63 -13.7065 1050.7 -10.5909 1051.73C-10.2257 1048.54 -12.2411 1038.24 -8.77234 1036.69L-9.53053 1041.49C-7.65515 1040.63 -6.8998 1037.69 -5.93973 1035.4L-3.02814 1036.28C-0.0851746 1033.98 0.552879 1027.75 -1.1618 1024.62C10.421 1026.96 10.3321 1031.47 12.5354 1042.28L12.575 1043.11C12.7932 1048.44 11.6777 1048.99 11.3624 1052.74C11.2018 1054.64 14.9674 1063.87 15.4186 1066.2C16.9361 1074.8 20.6695 1083.41 22.0853 1091H19.1521H-83V1047.04C-79.4751 1046.24 -75.3218 1045.56 -71.7205 1044.87C-68.8579 1040.63 -79.5688 1032.07 -83 1029.64V975.473L-80.772 973.396C-74.3918 966.277 -70.7443 969.37 -65.6573 965.873Z" fill="#0C0B2B"/>
<path d="M9.90488 1080.8C-2.97498 1065.88 -1.8229 1055.09 -25.7186 1051.48C-28.8318 1051.01 -40.813 1049.66 -42.1626 1047.93C-40.4233 1044.82 -41.3818 1045.52 -38.7029 1044.52L-39.9148 1043.93L-38.9464 1043.08L-37.7868 1045.46L-36.0999 1045.98C-32.7235 1046.35 -21.2495 1048 -18.2896 1049.09C-15.2837 1051.79 -13.1818 1052.29 -9.78333 1054.28C2.72043 1061.63 6.08104 1067.23 9.90488 1080.8Z" fill="#351D58"/>
<path d="M6.30518 1051.75C7.9018 1047.47 8.50998 1044.52 12.5355 1042.28L12.5751 1043.11C12.7933 1048.44 11.6778 1048.99 11.3625 1052.74C11.2019 1054.64 14.9675 1063.87 15.4187 1066.2C16.9362 1074.8 20.6696 1083.41 22.0854 1091H19.1522C15.2589 1077.79 10.9748 1064.7 6.30518 1051.75Z" fill="#351D58"/>
<path d="M384.651 977.953C395.923 974.405 405.208 973.508 416.306 979.201C417.984 980.068 419.631 981.001 421.242 981.988C430.285 976.571 448.859 971.327 450.04 987.329C449.198 992.021 448.082 995.876 443.861 998.827C442.216 1000.13 433.256 1006.51 432.957 1007.27C433.447 1014 432.398 1017.59 436.551 1022.01C437.796 1027.6 431.34 1047.38 426.021 1051.42C422.663 1054.01 419.356 1053.39 415.812 1055.75L415.979 1056.54C418.039 1057.18 419.612 1057.63 421.717 1058.09C426.882 1059.14 437.726 1061.56 442.119 1064.01C444.137 1066.03 450.496 1069.2 453.32 1070.98C462.312 1076.66 464.64 1083.55 469.849 1091H464.878H325.895C336.928 1073.52 339.473 1062.16 362.647 1056.77C369.655 1055.14 377.125 1057.04 379.925 1050.47C375.596 1045.42 369.44 1039.34 366.293 1033.67C359.992 1022.32 358.339 992.2 372.792 985.364C377.111 981.367 379.11 979.858 384.651 977.953Z" fill="#0C0B2B"/>
<path d="M464.878 1091C460.741 1088 456.352 1081.73 453.019 1077.28C445.246 1066.88 423.974 1062.39 411.715 1060.51C410.501 1060.33 411.066 1060.4 409.749 1059.36C410.406 1057.49 411.899 1056.21 413.29 1054.71C415.651 1059.56 416.435 1058.23 421.717 1058.09C426.882 1059.14 437.726 1061.56 442.119 1064.01C444.137 1066.03 450.496 1069.2 453.32 1070.98C462.312 1076.66 464.64 1083.55 469.849 1091H464.878Z" fill="#351D58"/>
<path d="M384.651 977.953C395.923 974.405 405.208 973.508 416.306 979.201C417.984 980.068 419.631 981.001 421.242 981.988C430.286 976.571 448.859 971.327 450.041 987.329C440.008 976.766 434.597 980.456 422.026 985.073C425.045 988.853 426.504 991.154 428.313 995.696C428.008 996.839 428.166 996.406 427.279 997.362C425.722 996.526 421.096 988.084 419.604 985.76C407.692 980.77 400.009 977.475 386.772 980.867L384.651 977.953Z" fill="#492A6D"/>
<path d="M426.021 1051.42C425.251 1048.6 428.996 1037.32 429.925 1033.48C431.541 1026.79 426.343 1011.86 429.537 1007.4L432.957 1007.27C433.447 1014 432.398 1017.59 436.551 1022.01C437.796 1027.6 431.34 1047.38 426.021 1051.42Z" fill="#351D58"/>
<path d="M422.026 985.073C434.597 980.456 440.008 976.766 450.041 987.329C449.199 992.021 448.082 995.876 443.861 998.827C443.102 996.451 445.277 988.532 446.029 985.977C443.474 984.042 429.079 985.23 424.46 985.29C427.423 989.847 427.921 990.579 428.313 995.696C426.504 991.154 425.045 988.853 422.026 985.073Z" fill="#191139"/>
<path d="M384.651 977.953L386.772 980.867C383.845 982.219 377.188 985.551 374.371 986.104L372.792 985.364C377.111 981.367 379.111 979.858 384.651 977.953Z" fill="#351D58"/>
<path d="M274.608 955.31C285.811 949.094 300.883 952.463 308.257 963.094C312.376 962.071 320.972 959.389 321.283 966.441C317.118 972.447 316.528 972.612 309.435 974.674L309.292 975.077C309.437 981.121 309.386 988.681 310.846 994.381C307.134 1002.54 307.424 1009.91 300.273 1013.29L299.586 1013.33C296.681 1013.5 295.832 1013.44 292.932 1013.04C291.817 1013.92 292.194 1013.36 291.883 1014.85C291.91 1018.57 291.369 1018.45 292.968 1021.32C294.947 1022.43 296.909 1023.58 298.855 1024.76C301.748 1026.43 305.22 1028.69 307.243 1031.42C310.497 1034.64 312.402 1040.15 314.233 1044.45C314.77 1043.27 317.695 1036.95 317.72 1036.08C317.929 1028.9 313.188 1019.39 321.446 1014.69L322.544 1015.31L323.576 1019.33L324.424 1019.64C330.822 1013.64 326.378 1008.89 337.366 1008.67C340.785 1010.6 341.829 1011.07 342.902 1014.94C343.15 1015.84 343.376 1016.76 343.581 1017.67C345.292 1025.98 338.158 1035.13 332.885 1040.9C332.931 1050.83 332.391 1063.44 330.144 1073.12C328.022 1082.25 324.928 1080.41 325.055 1091H280.087C272.012 1074.12 270.098 1066.6 251.835 1059.99C254.32 1056.43 257.802 1052 257.798 1047.54C257.304 1036.76 248.384 1035.14 247.364 1027.73C257.494 1014.58 258.306 1019.27 268.621 1014.9C282.086 1009.18 241.059 974.853 274.608 955.31Z" fill="#0C0B2B"/>
<path d="M274.608 955.31C285.811 949.094 300.883 952.463 308.257 963.094L307.112 966.194L304.647 964.648L300.254 964.461C296.918 960.853 291.393 958.402 286.991 956.415C283.173 956.497 277.327 957.282 274.608 955.31Z" fill="#492A6D"/>
<path d="M286.991 956.415C294.699 956.49 300.124 957.588 304.647 964.648L300.254 964.461C296.918 960.853 291.393 958.402 286.991 956.415Z" fill="#351D58"/>
<path d="M290.007 1023.12C293.476 1021.96 293.541 1024.6 298.855 1024.76C301.749 1026.43 305.22 1028.69 307.243 1031.42C313.031 1047.89 316.596 1047.22 318.33 1065.5C309.88 1053.6 311.83 1041.52 302.517 1031.29C300.154 1028.69 294.284 1026.7 290.512 1023.55L290.007 1023.12Z" fill="#351D58"/>
<path d="M300.273 1013.29L299.714 1011.44C302.538 1006.77 305.149 999.439 306.351 994.068C307.33 989.697 303.487 978.917 306.625 975.234L309.292 975.077C309.437 981.121 309.386 988.681 310.846 994.381C307.134 1002.54 307.424 1009.91 300.273 1013.29Z" fill="#351D58"/>
<path d="M308.257 963.094C312.376 962.071 320.972 959.389 321.283 966.441C317.118 972.447 316.528 972.612 309.435 974.674C309.929 970.206 308.85 969.803 311.037 966.434L310.166 966.374L307.111 966.194L308.257 963.094Z" fill="#191139"/>
<path d="M308.257 963.094C312.376 962.071 320.972 959.389 321.283 966.441C315.366 966.075 317.334 965.395 311.037 966.434L310.166 966.374L307.111 966.194L308.257 963.094Z" fill="#351D58"/>
<path d="M300.254 964.461L304.647 964.648L307.112 966.194L310.166 966.374C305.995 967.644 306.808 972.41 297.328 973.419L296.974 972.731C298.957 970.004 300.704 969.041 303.479 967.151L303.276 966.217C301.888 965.679 301.439 965.29 300.254 964.461Z" fill="#191139"/>
<path d="M337.366 1008.67C340.785 1010.6 341.828 1011.07 342.902 1014.94C343.15 1015.84 343.376 1016.76 343.581 1017.68C340.533 1018.65 341.335 1018.89 338.799 1018.09C336.544 1015.29 337.051 1012.18 337.366 1008.67Z" fill="#191139"/>
<path d="M290.007 1023.12L287.656 1021.43C287.59 1018.35 288.849 1016.96 290.793 1014.53L291.883 1014.85C291.91 1018.57 291.369 1018.45 292.968 1021.32C294.947 1022.43 296.909 1023.58 298.855 1024.76C293.541 1024.6 293.476 1021.96 290.007 1023.12Z" fill="#492A6D"/>
<path d="M719.356 1012.51C722.86 1010.61 726.797 1008.07 730.682 1007.71L732.573 1008.28L734.261 1012.18C741.322 1014.79 745.67 1004.85 750.153 1015.88C751.049 1018.09 752.342 1021.52 754.015 1023.18C755.375 1026.94 755.136 1028.34 754.284 1032.39C752.88 1034.95 750.9 1037.69 751.087 1040.41C752.633 1053.68 757.221 1058.88 752.962 1069.73C751.699 1075.69 750.885 1081.88 745.849 1085.8C743.974 1086.71 741.695 1087.32 741.12 1088.83C744.191 1089.73 746.91 1089.86 749.562 1091H675.028C677.292 1088.21 678.092 1087.81 681.319 1086.61C681.611 1086.58 684.532 1084.9 684.524 1084.89C681.394 1073.65 679.302 1074.57 684.099 1062.64C680.617 1050.54 679.952 1043.52 685.032 1031.68C689.186 1024.38 699.826 1016.37 707.85 1014.31C709.299 1013.94 714.731 1013.63 716.681 1013.37L719.356 1012.51Z" fill="#0C0B2B"/>
<path d="M719.356 1012.51C722.86 1010.61 726.798 1008.07 730.683 1007.71L732.573 1008.28L734.261 1012.18C741.322 1014.79 745.67 1004.85 750.153 1015.88C751.05 1018.09 752.342 1021.52 754.016 1023.18C751.057 1023.07 748.786 1022.61 746.387 1024.12L744.759 1026.5C742.002 1026.27 741.501 1026.71 739.671 1025.17C739.917 1022.21 742.816 1019.09 744.52 1016.13C736.182 1017.56 727.918 1018.41 719.513 1019.33C715.381 1019.78 710.338 1017.5 706.371 1018.92C693.655 1023.48 699.161 1028.9 685.033 1031.68C689.187 1024.38 699.826 1016.37 707.85 1014.31C709.3 1013.94 714.731 1013.63 716.681 1013.37L719.356 1012.51Z" fill="#47276A"/>
<path d="M747.202 1043.17C747.351 1041.63 747.403 1041.73 748.277 1040.43L751.087 1040.41C752.633 1053.68 757.221 1058.88 752.962 1069.73C751.752 1071.28 752.163 1071.25 750.616 1071.74L749.084 1067.67C750.519 1062.05 748.248 1049.33 747.202 1043.17Z" fill="#351D58"/>
<path d="M744.759 1026.5L746.387 1024.12C748.786 1022.61 751.057 1023.07 754.016 1023.18C755.375 1026.94 755.136 1028.34 754.285 1032.39C751.976 1033.6 752.088 1034.04 749.974 1033.81L749.667 1031.9L750.317 1029.04C748.957 1026.85 747.994 1027.3 744.759 1026.5Z" fill="#351D58"/>
<path d="M749.084 1067.67L750.616 1071.74C752.163 1071.25 751.752 1071.28 752.962 1069.73C751.699 1075.69 750.885 1081.88 745.849 1085.8C744.781 1082.01 748.203 1073.74 749.084 1067.67Z" fill="#191139"/>
<path d="M747.202 1043.17C746.014 1041.25 745.177 1041.35 744.288 1038.85C745.237 1035.37 746.701 1034.45 749.667 1031.9L749.974 1033.81C752.088 1034.04 751.976 1033.6 754.285 1032.39C752.88 1034.95 750.9 1037.69 751.087 1040.41L748.278 1040.43C747.403 1041.73 747.351 1041.63 747.202 1043.17Z" fill="#492A6D"/>
<path d="M735.651 1056.15C737.519 1056.52 737.422 1056.53 738.908 1057.77C740.096 1060.18 739.588 1061.98 739.289 1064.72L737.84 1064.67C736.204 1062.33 736.084 1059.11 735.651 1056.15Z" fill="#191139"/>
<path d="M454.187 1047.76C453.96 1043.49 454.361 1029.66 459.465 1028.72C462.596 1031.62 459.364 1031.18 461.633 1034.25C469.557 1030.82 462.135 1016.05 478.912 1017.81C478.056 1020.72 477.11 1022.84 477.65 1025.77L478.426 1025.98C480.029 1023.73 480.891 1021.19 480.871 1018.41C482.416 1020.14 484.019 1021.5 484.517 1023.67L487.637 1032.55C484.838 1041.18 482.118 1047.15 478.615 1055.48C481.237 1063.75 485.413 1082.65 486.051 1091H481.254H469.849C464.641 1083.55 462.312 1076.66 453.321 1070.98C450.497 1069.2 444.138 1066.03 442.12 1064.01C444.404 1062.73 452.414 1050.67 454.187 1047.76ZM459.9 1073.35C460.376 1071.25 461.604 1068.6 459.932 1066.94C459.425 1069.13 458.08 1071.79 459.9 1073.35Z" fill="#0C0B2B"/>
<path d="M474.77 1056.74C478.01 1049.53 481.202 1041.57 482.923 1033.86C482.111 1032.91 481.278 1031.98 480.424 1031.07C480.213 1027.63 481.807 1025.42 484.517 1023.67L487.636 1032.55C484.838 1041.18 482.118 1047.15 478.615 1055.48C481.237 1063.75 485.413 1082.65 486.051 1091H481.254C480.363 1082.63 477.367 1064.36 474.77 1056.74Z" fill="#351D58"/>
<path d="M459.932 1066.94C461.604 1068.6 460.376 1071.25 459.9 1073.35C458.08 1071.79 459.425 1069.13 459.932 1066.94Z" fill="#191139" fill-opacity="0.909804"/>
<path d="M762.152 1091C761.479 1083.58 759.544 1080.33 762.742 1073.81C765.873 1071.89 764.094 1075.01 768.293 1074.28C773.979 1067.81 767.8 1063.47 776.908 1061.37C775.75 1064.98 775.07 1068.92 774.338 1072.67L775.451 1072.82C777.483 1070.55 778.185 1068.15 779.336 1065.29L780.516 1065.7C781.181 1068 781.338 1069.15 781.637 1071.52L782.534 1071.72C784.043 1070.45 784.954 1069.21 786.613 1069.07L789.676 1068.04C791.865 1078.08 791.671 1081.15 787.547 1091H783.356H762.152Z" fill="#191139"/>
<path d="M789.676 1068.04C791.865 1078.08 791.671 1081.15 787.547 1091H783.355C789.153 1078.22 782.07 1081.12 786.613 1069.07L789.676 1068.04Z" fill="#351D58"/>
<path d="M776.908 1061.37C784.088 1062.63 785.455 1062.01 789.676 1068.04L786.613 1069.07C784.954 1069.21 784.043 1070.45 782.534 1071.72L781.637 1071.52C781.338 1069.15 781.181 1068 780.516 1065.7L779.336 1065.29C778.185 1068.15 777.483 1070.55 775.451 1072.82L774.338 1072.67C775.07 1068.92 775.75 1064.98 776.908 1061.37Z" fill="#492A6D" fill-opacity="0.988235"/>
<path d="M-1.16176 1024.62C0.552911 1027.75 -0.0851436 1033.98 -3.02811 1036.28L-5.9397 1035.4C-4.99905 1030.35 -4.92733 1028.1 -1.16176 1024.62Z" fill="#191139" fill-opacity="0.988235"/>
<path d="M523.007 1060.93C526.884 1058.88 536.237 1058.58 540.605 1058.77C537.663 1060.15 526.585 1061.48 522.919 1061.5L523.007 1060.93Z" fill="#0C0B2B" fill-opacity="0.823529"/>
<path d="M478.912 1017.81L480.871 1018.41C480.891 1021.19 480.029 1023.73 478.426 1025.98L477.65 1025.77C477.11 1022.84 478.056 1020.72 478.912 1017.81Z" fill="#191139" fill-opacity="0.980392"/>
</g>
<g clip-path="url(#clip1_5_1691)">
<path d="M1567.9 970.953L1568.37 969.636L1570 970.114L1574.82 967.344C1576.78 968.752 1576.74 968.761 1578.25 970.673L1578.71 970.845C1579.42 973.407 1580.22 978.352 1582.59 979.434C1583.7 976.087 1582.98 972.514 1582.64 968.887C1587.03 972.099 1587.76 979.389 1589.02 984.884C1591.53 982.646 1592.12 981.311 1594.98 981.013C1598.91 986.147 1593.9 996.27 1590.92 1000.88C1592.3 1003.88 1595.99 1011.73 1596.42 1014.91C1600.3 1022.8 1605.67 1033.19 1608.27 1041.41C1610.87 1043.49 1617.86 1049.6 1620.33 1050.64C1622.66 1051.49 1626.97 1053.35 1629.22 1053.21C1627.22 1050.95 1625.94 1049.29 1624.15 1046.85C1617.82 1035.98 1617.16 1015.93 1617.91 1003.24C1618.2 998.363 1622.75 997.93 1625.48 994.132C1625.53 993.311 1625.59 992.499 1625.69 991.678C1626.94 981.509 1635.72 980.625 1643.39 978.658C1653.65 976.042 1651.73 973.525 1662.74 975.085C1673.26 981.591 1679.55 978.821 1685.91 985.948C1687.83 989.115 1687.95 989.774 1689.05 993.401C1691.62 995.711 1696.83 997.642 1697.16 1000.96C1699.46 1024.36 1697.81 1042.84 1674.64 1054.81C1687.94 1059.03 1696.82 1060.56 1710 1066.19L1711.07 1065.03C1711.16 1057.34 1711.21 1049.66 1711.21 1041.98C1707.21 1037.38 1706.29 1035.37 1703.45 1029.92C1702.41 1026.45 1702 1024.38 1704.43 1021.52L1706.18 1021.82L1708.35 1025.45C1708.35 1018.19 1706.5 1013.02 1712.66 1008.78C1723.25 1000.95 1735.42 1023.12 1729.86 1032.94C1729.82 1033 1728.34 1039.04 1728.14 1039.76C1733.85 1055.35 1740.94 1075.32 1741.93 1092L1737.53 1099H1587.3H1584.13L1586.75 1091.05C1588.52 1084.47 1592.95 1078.93 1597.12 1073.66C1592.63 1069.93 1591.38 1067.16 1588.94 1062.11C1586.19 1054.56 1582.77 1048.1 1580.3 1040.19C1576.58 1028.22 1575.43 1015.99 1573.76 1003.6C1565.51 994.628 1559.71 981.951 1567.9 970.953Z" fill="#0D0A2B"/>
<path d="M1567.9 970.953C1569.7 972.821 1571.87 984.532 1571.11 986.634L1568.22 986.878C1568.15 990.388 1571.14 995.53 1572.89 998.706C1580.23 1012.11 1580.77 1029.84 1585.81 1044.72C1587.15 1048.68 1590.95 1058.08 1591.28 1060.98C1589.83 1062.2 1590.65 1061.95 1588.94 1062.11C1586.19 1054.56 1582.77 1048.1 1580.3 1040.19C1576.58 1028.22 1575.43 1015.99 1573.76 1003.6C1565.51 994.628 1559.71 981.952 1567.9 970.953Z" fill="#371E59"/>
<path d="M1597.12 1073.66C1603.95 1068.13 1609.63 1064.22 1617.97 1061.2C1626.68 1058.03 1634.29 1060.91 1640.05 1053.28C1641.98 1055.43 1643.9 1057.54 1645.76 1059.75C1613.27 1061.21 1601.62 1071.33 1587.31 1099H1584.13L1586.75 1091.05C1588.52 1084.47 1592.95 1078.93 1597.12 1073.66Z" fill="#371E59"/>
<path d="M1625.48 994.132L1628.25 993.951C1628.92 999.825 1623.6 1005.75 1620.75 1011.29C1622.2 1014.17 1623.61 1017.04 1625.19 1019.85C1622.12 1030.99 1621.3 1034.8 1627.62 1045.85C1628.05 1046.61 1628.5 1047.36 1628.95 1048.1L1627.9 1048.52L1624.15 1046.85C1617.82 1035.98 1617.16 1015.93 1617.91 1003.24C1618.2 998.363 1622.75 997.93 1625.48 994.132Z" fill="#371E59"/>
<path d="M1625.48 994.132C1625.53 993.311 1625.59 992.499 1625.69 991.678C1626.94 981.51 1635.72 980.625 1643.39 978.658C1653.65 976.042 1651.73 973.525 1662.74 975.086L1659.27 978.198C1653.76 978.27 1653.96 978.216 1650.24 982.547C1639.58 985.597 1634.66 982.565 1628.25 993.951L1625.48 994.132Z" fill="#462769"/>
<path d="M1703.45 1029.92L1704.84 1026.92C1705.93 1027.42 1711.94 1036.95 1714.99 1040.18C1715.46 1051.07 1713.71 1065.95 1717.79 1074.11C1715.78 1073.91 1713.52 1071.46 1711.84 1069.99C1710.82 1067.67 1710.99 1067.5 1711.07 1065.03C1711.16 1057.34 1711.21 1049.66 1711.21 1041.98C1707.21 1037.38 1706.29 1035.37 1703.45 1029.92Z" fill="#251646"/>
<path d="M1596.42 1014.91C1600.3 1022.8 1605.67 1033.19 1608.27 1041.41C1610.87 1043.49 1617.86 1049.6 1620.33 1050.64L1619.27 1051.98L1619.74 1053.62L1617.69 1054.33C1607.94 1050.91 1595.11 1023.82 1596.42 1014.91Z" fill="#251646"/>
<path d="M1662.74 975.085C1673.26 981.591 1679.55 978.821 1685.91 985.948L1684.1 986.769C1678.34 984.92 1671.35 985.164 1666.28 981.509C1663.95 979.831 1662.87 979.488 1660.22 978.532L1659.27 978.198L1662.74 975.085Z" fill="#251646"/>
<path d="M1708.35 1025.45C1708.35 1018.19 1706.5 1013.02 1712.66 1008.78C1713.09 1015.36 1713.47 1020.11 1712.14 1026.62L1710.68 1027.99L1709.1 1027.34L1708.35 1025.45Z" fill="#251646"/>
<path d="M1574.39 969.852C1577 972.893 1577.88 979.552 1577.65 983.485C1574.77 979.182 1572.85 974.977 1574.39 969.852Z" fill="#251646"/>
<path d="M1736.79 924.767L1741 923.946C1742.51 926.581 1742.95 927.492 1744.03 930.325C1745.36 929.639 1744.77 930.118 1745.5 928.539C1746.6 927.275 1747.07 927.285 1748.71 926.454C1753.13 932.978 1749.55 940.286 1751.37 945.284C1755.25 944.102 1756.18 942.812 1759.09 943.895C1761.04 949.335 1754.85 959.152 1751.04 962.878C1754.46 977.143 1762.73 1011.62 1771.27 1023.38C1777.33 1014.22 1771.93 998.779 1785.41 987.834C1796.4 975.645 1818.28 976.285 1830.75 985.741C1840.33 989.991 1847.23 1006.95 1846.77 1016.99C1846.67 1019.22 1846.36 1021.38 1848.07 1022.26C1855.51 1009.55 1864.68 990.983 1869.23 977.161C1868.07 973.028 1863.88 960.388 1864.16 956.851L1865.29 956.238C1868.25 957.789 1867.16 956.653 1868.49 959.937L1870.67 960.794C1876.2 956.472 1871.69 946.629 1877.95 944.562C1878.96 945.402 1879.96 946.25 1880.95 947.116C1882.13 945.853 1882.62 945.212 1883.63 943.805C1889.5 944.048 1896.3 954.144 1895.72 959.612C1894.87 967.425 1888.68 974.301 1885.55 981.347C1881.88 992.508 1880.77 1005.26 1876.44 1016.63C1869.3 1035.43 1858.74 1052.57 1850.68 1070.68C1858.32 1079.02 1860.81 1088.34 1864.39 1099H1751.81H1747.16C1750.12 1088.97 1754.68 1077.66 1760.75 1069.14C1758.32 1063.29 1756.75 1058.85 1754.82 1052.8C1752.78 1048.56 1748.92 1036.97 1747.58 1032.65C1738.24 1009.18 1737.23 991.795 1733.85 967.2C1733.07 961.471 1729.44 954.587 1728.06 945.311C1726.94 942.46 1725.9 939.844 1726.93 937.119C1729.78 937.985 1730.09 939.402 1732.21 942.135C1731.32 937.751 1729.23 931.841 1732.04 928.178L1733.9 928.62L1735.85 930.704L1736.55 930.091L1736.79 924.767Z" fill="#0D0A2B"/>
<path d="M1728.06 945.311C1739.21 952.241 1738.75 988.556 1742.1 1001.29C1743.49 1006.56 1748.34 1027.62 1747.72 1031.64L1747.58 1032.65C1738.24 1009.18 1737.23 991.795 1733.85 967.2C1733.07 961.471 1729.44 954.586 1728.06 945.311Z" fill="#371E59"/>
<path d="M1754.82 1052.8L1756.82 1051.68C1762.62 1057.02 1767.85 1078.23 1768.22 1086.83C1768.32 1088.84 1768.37 1090.85 1768.38 1092.87C1766.21 1086.21 1764.48 1080.04 1762.64 1073.3C1758.08 1082.15 1755.65 1090.08 1751.81 1099H1747.16C1750.12 1088.97 1754.68 1077.66 1760.75 1069.14C1758.32 1063.29 1756.75 1058.85 1754.82 1052.8Z" fill="#251646"/>
<path d="M1869.23 977.161C1868.07 973.028 1863.88 960.388 1864.16 956.851L1865.29 956.238C1868.25 957.789 1867.16 956.653 1868.49 959.937C1868.05 966.731 1871.2 971.413 1873.45 977.711C1868.44 988.132 1855.59 1022.88 1847.08 1027.88C1847.35 1025.64 1847.5 1024.5 1848.07 1022.26C1855.51 1009.55 1864.68 990.983 1869.23 977.161Z" fill="#371E59"/>
<path d="M1785.41 987.834C1790.01 987.789 1791.32 983.855 1795.85 983.17L1796.6 984.703C1795.09 985.84 1794.66 985.858 1792.86 986.526L1791.81 988.294C1781.08 997.551 1778.87 1005.33 1777.74 1019L1777.3 1020.05C1774.05 1028.14 1774.77 1031.23 1778.15 1039C1779.19 1041.35 1780.32 1043.67 1781.53 1045.93C1773.24 1038.69 1773.17 1034.01 1771.27 1023.38C1777.33 1014.22 1771.93 998.778 1785.41 987.834Z" fill="#462769"/>
<path d="M1785.41 987.834C1796.4 975.645 1818.28 976.285 1830.75 985.741C1826.55 987.121 1821.39 983.612 1813.57 983.449C1804.13 983.585 1800.66 984.785 1791.81 988.294L1792.86 986.526C1794.66 985.858 1795.09 985.84 1796.6 984.703L1795.85 983.17C1791.32 983.855 1790.01 987.789 1785.41 987.834Z" fill="#371E59"/>
<path d="M1791.81 988.294C1800.66 984.785 1804.13 983.585 1813.57 983.449C1810.61 985.064 1798.62 992.833 1797.42 992.977C1798.49 990.351 1804.17 987.293 1806.76 985.768C1800.75 985.885 1785.52 989.927 1787.46 998.824C1788.5 1003.57 1779.88 1014.18 1777.74 1019C1778.87 1005.33 1781.08 997.551 1791.81 988.294Z" fill="#251646"/>
<path d="M1732.21 942.135C1731.32 937.751 1729.23 931.841 1732.04 928.178L1733.9 928.62C1735.25 934.466 1735.45 938.184 1734.5 944.003L1733.22 945.149C1731.93 943.462 1732.31 944.409 1732.21 942.135Z" fill="#251646"/>
<path d="M1736.79 924.767L1741 923.946C1740.39 932.698 1741.79 937.164 1741.8 945.005C1739.35 938.111 1737.06 932.166 1736.79 924.767Z" fill="#251646"/>
<path d="M1745.5 928.538C1746.6 927.275 1747.07 927.284 1748.71 926.454C1748.73 931.218 1748.99 934.827 1747.68 939.42L1746.73 939.988C1745.12 936.018 1745.49 932.851 1745.5 928.538Z" fill="#251646"/>
<path d="M1285.22 998.697C1285.42 998.084 1285.53 997.624 1285.97 997.082C1296.77 983.819 1317.92 986.697 1330.75 995.63C1349.33 1004.88 1346.53 1033.24 1337.82 1047.93C1333.99 1054.39 1325.98 1057.34 1325.75 1065.16C1327.92 1068.3 1349.15 1068.89 1357.62 1077.77C1365.14 1085.66 1365.64 1091.1 1370.36 1097.86L1370.33 1099H1248.45H1241C1249.98 1087.63 1253.67 1087.23 1261.66 1078.75C1264.56 1076.27 1267.85 1074.93 1271.47 1073.92C1277.33 1071.56 1288.85 1071.23 1291.78 1066.45L1282.85 1064.58C1278.69 1062.39 1277.49 1060.01 1276.06 1055.71C1273.51 1048 1269.13 1038.72 1273.88 1031.1C1276.19 1027.37 1276.31 1025.09 1276.59 1020.76L1276.68 1019.36C1272.17 1016.46 1270.12 1015.15 1266.13 1011.61C1261.89 1007.95 1257.77 1003.77 1261.37 998.526C1268.9 994.267 1277.5 996.658 1285.22 998.697Z" fill="#0D0A2B"/>
<path d="M1285.22 998.697C1285.42 998.084 1285.52 997.624 1285.97 997.082C1296.77 983.819 1317.92 986.697 1330.75 995.63C1324.73 996.153 1316.92 993.13 1310.22 992.905C1298.55 992.526 1294.55 994.43 1286.71 1002.87C1284.97 1004.77 1283.27 1006.71 1281.62 1008.69C1281.09 1006.13 1282.02 1005.58 1283.4 1002.58C1284.25 1001.75 1284.74 999.942 1285.22 998.697Z" fill="#371E59"/>
<path d="M1271.47 1073.92C1276.07 1073.84 1279.98 1072.82 1283.46 1074.44C1268.85 1079.11 1255.82 1084.58 1248.45 1099H1241C1249.98 1087.63 1253.67 1087.23 1261.66 1078.75C1264.56 1076.27 1267.85 1074.93 1271.47 1073.92Z" fill="#371E59"/>
<path d="M1276.68 1019.36C1278.28 1019.85 1279.33 1019.74 1279.63 1020.89C1281.61 1028.46 1275.42 1036.53 1277.31 1044.25C1279.21 1051.97 1279.3 1056.01 1283.6 1062.81L1282.85 1064.58C1278.69 1062.39 1277.48 1060.01 1276.06 1055.71C1273.51 1048 1269.13 1038.72 1273.88 1031.1C1276.19 1027.37 1276.31 1025.09 1276.59 1020.76L1276.68 1019.36Z" fill="#371E59"/>
<path d="M1266.13 1011.61C1261.89 1007.95 1257.77 1003.77 1261.37 998.526C1268.9 994.267 1277.5 996.658 1285.22 998.697C1284.74 999.942 1284.25 1001.75 1283.4 1002.58C1278.96 1002.33 1270.1 1000.93 1266.86 1002.76C1264 1006.77 1266.02 1007.23 1266.13 1011.61Z" fill="#462769"/>
<path d="M1291.78 1066.45L1292.42 1064.78L1293.89 1065.2C1295.26 1067.96 1295.23 1067.79 1295.09 1070.87C1292.39 1074.79 1288.16 1074.05 1283.46 1074.44C1279.98 1072.82 1276.07 1073.84 1271.47 1073.92C1277.33 1071.56 1288.85 1071.23 1291.78 1066.45Z" fill="#251646"/>
<path d="M1405.31 1028.12C1407.36 1002.41 1434.9 993.87 1456.01 1003.33C1475.11 1012.66 1472.13 1026.91 1477.58 1043.64C1479.53 1049.63 1490.19 1054.11 1484.95 1063.68C1481.8 1070.24 1474.86 1071.87 1468.53 1074.19C1481.29 1077.23 1483.48 1081.25 1490.17 1092.08L1491.57 1094.4L1489.98 1099H1384.14H1378.57C1382.35 1089.69 1386.29 1083.59 1394.28 1077.59C1397.37 1075.19 1397.81 1074.97 1401.58 1073.94C1403.52 1073.4 1405.1 1073.26 1406.35 1071.79C1403.06 1070.08 1401.94 1069.51 1399.68 1066.56C1398.58 1063.94 1397.21 1058.94 1396.31 1056.06C1403.43 1043.11 1403.08 1042.71 1405.31 1028.12Z" fill="#0D0A2B"/>
<path d="M1405.31 1028.12C1407.36 1002.41 1434.9 993.87 1456.01 1003.33L1454.46 1004.89C1435.94 1003.13 1414.74 1004.91 1410.17 1027.38C1408.37 1029.39 1408.1 1029.74 1407.41 1032.35C1406.46 1030.67 1405.97 1029.95 1405.31 1028.12Z" fill="#462769"/>
<path d="M1401.58 1073.94C1409.79 1073.56 1413.99 1073.49 1422.33 1074.17C1400.5 1080.21 1396.86 1080.85 1384.14 1099H1378.57C1382.35 1089.69 1386.29 1083.59 1394.28 1077.59C1397.37 1075.19 1397.81 1074.97 1401.58 1073.94Z" fill="#371E59"/>
<path d="M1405.31 1028.12C1405.97 1029.95 1406.46 1030.67 1407.41 1032.35C1408.1 1029.74 1408.37 1029.39 1410.17 1027.38C1409.45 1032.19 1408.64 1037.33 1407.4 1042.01C1405.02 1051.06 1401.78 1055.46 1401.38 1065L1399.68 1066.56C1398.58 1063.94 1397.21 1058.94 1396.31 1056.06C1403.43 1043.11 1403.08 1042.71 1405.31 1028.12Z" fill="#371E59"/>
<path d="M1916.21 1030.91C1915.59 1023.2 1913.58 1018.81 1915.4 1009.79C1916.39 1004.82 1914.79 999.103 1917.61 993.978C1922.18 985.633 1929.54 979.497 1938.4 976.168C1945.63 973.705 1956.09 971.495 1958.31 980.174C1957.05 985.542 1957.55 1010.62 1957.55 1017.73L1957.62 1099H1871.33L1870.44 1097.25C1867.26 1085.69 1875.13 1071.2 1879.75 1059.62C1880.87 1056.02 1882.76 1053.27 1884.7 1050.03C1881.57 1042.01 1879.82 1037.6 1877.85 1029.15C1882.8 1023.9 1881.58 1020.6 1886.61 1017.56C1889.81 1014.99 1888.6 1015.78 1893.05 1015.06C1899.99 1017.23 1900.71 1026.32 1902.2 1032.77L1902.61 1032.13C1903.38 1030.97 1904.17 1029.86 1904.98 1028.71L1906.4 1029.36C1908.87 1036.3 1907.14 1042.1 1904.74 1048.76C1905.91 1051.85 1906.69 1054.92 1908.99 1057.14L1910.5 1057.26C1916.43 1053.49 1926.66 1051.73 1933.73 1050.15C1922.8 1041.98 1919.26 1048.52 1916.21 1030.91Z" fill="#0D0A2B"/>
<path d="M1916.21 1030.91C1915.59 1023.2 1913.58 1018.81 1915.4 1009.79C1916.39 1004.82 1914.79 999.103 1917.61 993.978C1922.18 985.633 1929.54 979.497 1938.4 976.168C1945.63 973.705 1956.09 971.495 1958.31 980.174C1945.54 981.004 1942.59 981.103 1930.23 986.183C1926.05 989.963 1923.07 994.899 1919.92 999.59C1920.01 1002.41 1920.03 1007.63 1920.37 1010.23C1920.86 1019.56 1915.49 1034.62 1923.92 1042.2L1924.63 1042.83L1923.83 1043.3C1918.68 1039.5 1920.02 1035.06 1916.21 1030.91Z" fill="#462769"/>
<path d="M1933.73 1050.15L1935.27 1048.8L1936.49 1049.84C1936.7 1053.01 1937.23 1051.83 1935.56 1053.78L1934.27 1054C1926.46 1055.34 1919.27 1058.13 1911.73 1060.58C1900.46 1065.77 1891.46 1076.82 1883.07 1086.05C1888.97 1070.22 1894.12 1065.69 1908.99 1057.14L1910.5 1057.26C1916.43 1053.49 1926.66 1051.73 1933.73 1050.15Z" fill="#371E59"/>
<path d="M1877.85 1029.15C1882.8 1023.9 1881.58 1020.6 1886.61 1017.56C1888.61 1023.27 1884.39 1037.21 1886.48 1044.45C1887.27 1047.18 1888 1051.98 1885.81 1054.21L1884.33 1054.23C1882.91 1056.21 1881.71 1058.28 1879.75 1059.62C1880.87 1056.02 1882.76 1053.27 1884.7 1050.03C1881.57 1042.01 1879.82 1037.6 1877.85 1029.15Z" fill="#371E59"/>
<path d="M1879.75 1059.62C1881.71 1058.28 1882.91 1056.21 1884.33 1054.23L1885.81 1054.21C1881.01 1067.02 1875.22 1081.79 1872.38 1095.17L1870.44 1097.25C1867.26 1085.69 1875.13 1071.2 1879.75 1059.62Z" fill="#371E59"/>
<path d="M1919.92 999.59C1923.07 994.899 1926.05 989.964 1930.23 986.183L1933.22 988.755C1933.31 994.033 1925.94 1006.65 1921.47 1009.51L1920.37 1010.23C1920.03 1007.63 1920.01 1002.41 1919.92 999.59Z" fill="#251646"/>
<path d="M1512.37 1023.91C1522.54 1016.96 1530.45 1012.06 1543.58 1014.27C1552.6 1015.79 1564.21 1021.96 1569.39 1029.58C1570.49 1031.21 1571.56 1032.87 1572.59 1034.56C1576.47 1042.1 1574.3 1045.01 1575.97 1052.3C1578.33 1062.57 1583.45 1070.62 1571.72 1078.45C1579.02 1082.68 1581.83 1084.1 1586.75 1091.05L1584.13 1099H1494.21H1489.98L1491.58 1094.4C1497.49 1085.19 1503.86 1080.03 1515.06 1078.81L1512.46 1077.25C1506.46 1073.81 1503.66 1067.87 1502.33 1061.15C1500.88 1053.77 1502.16 1052.28 1506.4 1046.43C1505.54 1040.64 1504.36 1037.84 1507.82 1032.97L1512.37 1023.91Z" fill="#0D0A2B"/>
<path d="M1512.37 1023.91C1522.54 1016.96 1530.45 1012.06 1543.58 1014.27C1552.6 1015.79 1564.21 1021.96 1569.39 1029.58C1570.49 1031.21 1571.56 1032.87 1572.59 1034.56L1569.66 1034.55C1561.93 1028.1 1552.71 1021.26 1542.81 1018.86C1540.54 1018.31 1532.26 1020.59 1528.43 1020.78L1527.27 1020.83C1520.16 1023.4 1515.3 1023.71 1516.23 1032.39C1515.37 1033.04 1514.16 1034.12 1513.22 1034.37L1512.74 1032.91L1511.64 1032.36L1511.81 1031.68L1512.46 1031.47L1512.02 1030.93C1510.28 1031.32 1511.1 1031.08 1509.57 1033.15L1507.82 1032.97L1512.37 1023.91Z" fill="#482B6F"/>
<path d="M1507.82 1032.97L1509.57 1033.15C1511.1 1031.08 1510.28 1031.32 1512.02 1030.93L1512.46 1031.47L1511.81 1031.68L1511.64 1032.36L1512.74 1032.91L1513.22 1034.37C1510.44 1036.94 1510.21 1037.02 1509.16 1040.53C1509.7 1045.76 1512.55 1048.01 1511.78 1050.56L1509.71 1049.8C1503.84 1055.31 1510.49 1071.04 1512.46 1077.25C1506.46 1073.81 1503.66 1067.87 1502.33 1061.15C1500.88 1053.77 1502.16 1052.28 1506.4 1046.43C1505.54 1040.64 1504.36 1037.84 1507.82 1032.97Z" fill="#371E59"/>
<path d="M1516.23 1032.39C1515.3 1023.71 1520.16 1023.4 1527.27 1020.83C1526.03 1027.84 1520.69 1030.06 1517.01 1036.09C1515.55 1041.41 1514.39 1045.95 1513.27 1051.34L1511.78 1050.56C1512.55 1048.01 1509.7 1045.76 1509.16 1040.53C1510.21 1037.02 1510.44 1036.94 1513.22 1034.37C1514.16 1034.12 1515.37 1033.04 1516.23 1032.39Z" fill="#251646"/>
<path d="M1515.06 1078.81L1516.29 1078.63L1516.99 1076.27L1517.94 1076.1C1519.61 1078.92 1519.61 1077.96 1519.25 1080.59C1506.42 1089.16 1504.78 1081.05 1494.21 1099H1489.98L1491.58 1094.4C1497.49 1085.19 1503.86 1080.03 1515.06 1078.81Z" fill="#371E59"/>
<path d="M1134.08 1056.77C1134.37 1055.67 1134.68 1054.58 1135.01 1053.49C1142.88 1027.65 1161.48 1026.32 1183.62 1033.2C1189.54 1036.01 1191.9 1038.6 1195.92 1043.8C1205.6 1055.13 1204.04 1070.24 1200 1083.52C1207.46 1086.64 1213.82 1091.49 1217.32 1099H1117.27H1113.13C1116.7 1092.33 1120.14 1087.19 1127.44 1084.35C1129.83 1083.41 1130.16 1083.27 1132.07 1081.6C1132.7 1069.59 1131.51 1070.62 1134.08 1056.77Z" fill="#0D0A2B"/>
<path d="M1134.08 1056.77C1134.37 1055.67 1134.68 1054.58 1135.01 1053.49C1142.88 1027.65 1161.48 1026.32 1183.62 1033.2L1183.72 1035.5L1182.67 1036.36C1162.33 1031.24 1144.02 1038.68 1137.46 1059.44L1134.08 1056.77Z" fill="#371E59"/>
<path d="M1134.08 1056.77L1137.46 1059.44C1137 1063.42 1134.88 1080.22 1136.41 1082.46L1139.01 1083.31C1139.27 1086.05 1139.11 1086.05 1138.19 1088.54L1136.55 1089.8C1134.66 1088.7 1134.76 1088.8 1133.41 1087.09C1132.93 1085.55 1132.46 1083.24 1132.07 1081.6C1132.7 1069.59 1131.51 1070.62 1134.08 1056.77Z" fill="#371E59"/>
<path d="M1183.62 1033.2C1189.54 1036.01 1191.9 1038.6 1195.92 1043.8L1194.42 1044.34C1191.6 1043.35 1185.37 1038.37 1182.67 1036.36L1183.72 1035.5L1183.62 1033.2Z" fill="#462769"/>
<path d="M1366.76 1028.38C1369.43 1022.93 1374.9 1010.4 1382.09 1015.04C1393.19 1017.34 1386.87 1028.49 1389.94 1030.92L1391.9 1028.86L1393.25 1029.2C1394.73 1031.74 1393.67 1038.59 1393.29 1041.82L1387.75 1048.91C1389.21 1059.7 1390.4 1067.25 1394.28 1077.59C1386.29 1083.59 1382.35 1089.69 1378.57 1099H1374.74H1370.33L1370.36 1097.86C1367.43 1083.98 1368.89 1062.75 1371.56 1048.89C1367.91 1040.68 1367.66 1037.39 1366.76 1028.38Z" fill="#0D0A2B"/>
<path d="M1366.76 1028.38C1369.43 1022.93 1374.9 1010.4 1382.09 1015.04L1381.27 1017.19L1378.52 1017.45C1377.02 1019.86 1377.34 1024.06 1377.03 1024.45C1374.29 1027.95 1372.65 1030.25 1370.58 1034.34C1371.32 1039.01 1373.95 1047.86 1373.82 1051.78C1373.29 1067.69 1371.04 1083.24 1374.74 1099H1370.33L1370.36 1097.86C1367.43 1083.98 1368.89 1062.75 1371.56 1048.89C1367.91 1040.68 1367.66 1037.39 1366.76 1028.38Z" fill="#251646"/>
<path d="M1235.42 1040.07C1239.01 1040.37 1240.99 1041.74 1244.2 1043.39C1247.84 1047.03 1246.74 1052.44 1249.41 1053.28C1255.91 1055.32 1254.09 1062.05 1253.66 1068.74L1261.66 1078.75C1253.67 1087.23 1249.98 1087.63 1241 1099H1231.63H1227.13C1228.83 1094.01 1230.13 1088.3 1231.64 1083.22C1237.2 1064.43 1220.26 1067.2 1228.9 1045.52C1231.24 1042.01 1231.29 1041.54 1235.42 1040.07Z" fill="#0D0A2B"/>
<path d="M1228.9 1045.52C1236.33 1058.49 1227.54 1058.23 1237.26 1075.68C1235.44 1083.47 1233.57 1091.24 1231.63 1099H1227.13C1228.83 1094.01 1230.13 1088.3 1231.64 1083.22C1237.2 1064.43 1220.26 1067.2 1228.9 1045.52Z" fill="#371E59"/>
<path d="M1235.42 1040.07C1239.01 1040.37 1240.99 1041.74 1244.2 1043.39C1244.09 1045.88 1244.27 1047.07 1243.02 1049.22L1241.42 1049.23C1238.6 1046.29 1237.38 1043.62 1235.42 1040.07Z" fill="#251646"/>
<path d="M1578.71 970.845C1579.81 970.114 1581.4 969.465 1582.64 968.887C1582.98 972.514 1583.7 976.087 1582.59 979.434C1580.22 978.352 1579.42 973.407 1578.71 970.845Z" fill="#251646" fill-opacity="0.984314"/>
</g>
<defs>
<clipPath id="clip0_5_1691">
<rect width="978" height="1530" fill="white" transform="translate(-83 -439)"/>
</clipPath>
<clipPath id="clip1_5_1691">
<rect width="1848" height="1486" fill="white" transform="translate(236 -387)"/>
</clipPath>
</defs>
</svg>
